<?xml version="1.0" encoding="utf-8"?>
<!-- Generator: Adobe Illustrator 24.2.1, SVG Export Plug-In . SVG Version: 6.00 Build 0)  -->
<svg version="1.1" id="Laag_1" xmlns="http://www.w3.org/2000/svg" xmlns:xlink="http://www.w3.org/1999/xlink" x="0px" y="0px"
	 viewBox="0 0 1440 900" style="enable-background:new 0 0 1440 900;" xml:space="preserve">
<style type="text/css">
	.st0{fill:#FFFFFF;}
</style>
<g>
	<rect y="2" class="st0" width="12" height="900"/>
</g>
<g>
	<g>
		<rect x="12" y="852" class="st0" width="98" height="7"/>
	</g>
	<g>
		<rect x="110" y="841" class="st0" width="5" height="29"/>
	</g>
</g>
<g>
	<g>
		<rect x="12" y="771" class="st0" width="98" height="7"/>
	</g>
	<g>
		<rect x="110" y="760" class="st0" width="5" height="29"/>
	</g>
</g>
<g>
	<g>
		<rect x="12" y="690" class="st0" width="98" height="7"/>
	</g>
	<g>
		<rect x="110" y="679" class="st0" width="5" height="29"/>
	</g>
</g>
<g>
	<g>
		<rect x="12" y="609" class="st0" width="98" height="7"/>
	</g>
	<g>
		<rect x="110" y="598" class="st0" width="5" height="29"/>
	</g>
</g>
<g>
	<g>
		<rect x="12" y="528" class="st0" width="98" height="7"/>
	</g>
	<g>
		<rect x="110" y="517" class="st0" width="5" height="29"/>
	</g>
</g>
<g>
	<g>
		<rect x="12" y="447" class="st0" width="98" height="7"/>
	</g>
	<g>
		<rect x="110" y="436" class="st0" width="5" height="29"/>
	</g>
</g>
<g>
	<g>
		<rect x="12" y="366" class="st0" width="98" height="7"/>
	</g>
	<g>
		<rect x="110" y="355" class="st0" width="5" height="29"/>
	</g>
</g>
<g>
	<g>
		<rect x="12" y="285" class="st0" width="98" height="7"/>
	</g>
	<g>
		<rect x="110" y="274" class="st0" width="5" height="29"/>
	</g>
</g>
<g>
	<g>
		<rect x="12" y="204" class="st0" width="98" height="7"/>
	</g>
	<g>
		<rect x="110" y="193" class="st0" width="5" height="29"/>
	</g>
</g>
<g>
	<g>
		<rect x="12" y="123" class="st0" width="98" height="7"/>
	</g>
	<g>
		<rect x="110" y="112" class="st0" width="5" height="29"/>
	</g>
</g>
<g>
	<g>
		<rect x="12" y="42" class="st0" width="98" height="7"/>
	</g>
	<g>
		<rect x="110" y="31" class="st0" width="5" height="29"/>
	</g>
</g>
<g>
	<rect x="359" y="2" class="st0" width="8" height="900"/>
</g>
<g>
	<g>
		<rect x="261" y="852" class="st0" width="98" height="7"/>
	</g>
	<g>
		<rect x="256" y="841" class="st0" width="5" height="29"/>
	</g>
</g>
<g>
	<g>
		<rect x="261" y="771" class="st0" width="98" height="7"/>
	</g>
	<g>
		<rect x="256" y="760" class="st0" width="5" height="29"/>
	</g>
</g>
<g>
	<g>
		<rect x="261" y="690" class="st0" width="98" height="7"/>
	</g>
	<g>
		<rect x="256" y="679" class="st0" width="5" height="29"/>
	</g>
</g>
<g>
	<g>
		<rect x="261" y="609" class="st0" width="98" height="7"/>
	</g>
	<g>
		<rect x="256" y="598" class="st0" width="5" height="29"/>
	</g>
</g>
<g>
	<g>
		<rect x="261" y="528" class="st0" width="98" height="7"/>
	</g>
	<g>
		<rect x="256" y="517" class="st0" width="5" height="29"/>
	</g>
</g>
<g>
	<g>
		<rect x="261" y="447" class="st0" width="98" height="7"/>
	</g>
	<g>
		<rect x="256" y="436" class="st0" width="5" height="29"/>
	</g>
</g>
<g>
	<g>
		<rect x="261" y="366" class="st0" width="98" height="7"/>
	</g>
	<g>
		<rect x="256" y="355" class="st0" width="5" height="29"/>
	</g>
</g>
<g>
	<g>
		<rect x="261" y="285" class="st0" width="98" height="7"/>
	</g>
	<g>
		<rect x="256" y="274" class="st0" width="5" height="29"/>
	</g>
</g>
<g>
	<g>
		<rect x="261" y="204" class="st0" width="98" height="7"/>
	</g>
	<g>
		<rect x="256" y="193" class="st0" width="5" height="29"/>
	</g>
</g>
<g>
	<g>
		<rect x="261" y="123" class="st0" width="98" height="7"/>
	</g>
	<g>
		<rect x="256" y="112" class="st0" width="5" height="29"/>
	</g>
</g>
<g>
	<g>
		<rect x="261" y="42" class="st0" width="98" height="7"/>
	</g>
	<g>
		<rect x="256" y="31" class="st0" width="5" height="29"/>
	</g>
</g>
<g>
	<rect x="180" y="2" class="st0" width="5" height="29"/>
</g>
<g>
	<rect x="180" y="49" class="st0" width="5" height="29"/>
</g>
<g>
	<rect x="180" y="96" class="st0" width="5" height="29"/>
</g>
<g>
	<rect x="180" y="143" class="st0" width="5" height="29"/>
</g>
<g>
	<rect x="180" y="190" class="st0" width="5" height="29"/>
</g>
<g>
	<rect x="180" y="237" class="st0" width="5" height="29"/>
</g>
<g>
	<rect x="180" y="284" class="st0" width="5" height="29"/>
</g>
<g>
	<rect x="180" y="331" class="st0" width="5" height="29"/>
</g>
<g>
	<rect x="180" y="378" class="st0" width="5" height="29"/>
</g>
<g>
	<rect x="180" y="425" class="st0" width="5" height="29"/>
</g>
<g>
	<rect x="180" y="472" class="st0" width="5" height="29"/>
</g>
<g>
	<rect x="180" y="519" class="st0" width="5" height="29"/>
</g>
<g>
	<rect x="180" y="566" class="st0" width="5" height="29"/>
</g>
<g>
	<rect x="180" y="613" class="st0" width="5" height="29"/>
</g>
<g>
	<rect x="180" y="660" class="st0" width="5" height="29"/>
</g>
<g>
	<rect x="180" y="707" class="st0" width="5" height="29"/>
</g>
<g>
	<rect x="180" y="754" class="st0" width="5" height="29"/>
</g>
<g>
	<rect x="180" y="801" class="st0" width="5" height="29"/>
</g>
<g>
	<rect x="180" y="848" class="st0" width="5" height="29"/>
</g>
<g>
	<rect x="180" y="895" class="st0" width="5" height="29"/>
</g>
<g>
	<rect x="359" y="2" class="st0" width="8" height="900"/>
</g>
<g>
	<g>
		<rect x="367" y="852" class="st0" width="98" height="7"/>
	</g>
	<g>
		<rect x="465" y="841" class="st0" width="5" height="29"/>
	</g>
</g>
<g>
	<g>
		<rect x="367" y="771" class="st0" width="98" height="7"/>
	</g>
	<g>
		<rect x="465" y="760" class="st0" width="5" height="29"/>
	</g>
</g>
<g>
	<g>
		<rect x="367" y="690" class="st0" width="98" height="7"/>
	</g>
	<g>
		<rect x="465" y="679" class="st0" width="5" height="29"/>
	</g>
</g>
<g>
	<g>
		<rect x="367" y="609" class="st0" width="98" height="7"/>
	</g>
	<g>
		<rect x="465" y="598" class="st0" width="5" height="29"/>
	</g>
</g>
<g>
	<g>
		<rect x="367" y="528" class="st0" width="98" height="7"/>
	</g>
	<g>
		<rect x="465" y="517" class="st0" width="5" height="29"/>
	</g>
</g>
<g>
	<g>
		<rect x="367" y="447" class="st0" width="98" height="7"/>
	</g>
	<g>
		<rect x="465" y="436" class="st0" width="5" height="29"/>
	</g>
</g>
<g>
	<g>
		<rect x="367" y="366" class="st0" width="98" height="7"/>
	</g>
	<g>
		<rect x="465" y="355" class="st0" width="5" height="29"/>
	</g>
</g>
<g>
	<g>
		<rect x="367" y="285" class="st0" width="98" height="7"/>
	</g>
	<g>
		<rect x="465" y="274" class="st0" width="5" height="29"/>
	</g>
</g>
<g>
	<g>
		<rect x="367" y="204" class="st0" width="98" height="7"/>
	</g>
	<g>
		<rect x="465" y="193" class="st0" width="5" height="29"/>
	</g>
</g>
<g>
	<g>
		<rect x="367" y="123" class="st0" width="98" height="7"/>
	</g>
	<g>
		<rect x="465" y="112" class="st0" width="5" height="29"/>
	</g>
</g>
<g>
	<g>
		<rect x="367" y="42" class="st0" width="98" height="7"/>
	</g>
	<g>
		<rect x="465" y="31" class="st0" width="5" height="29"/>
	</g>
</g>
<g>
	<rect x="714" y="2" class="st0" width="8" height="900"/>
</g>
<g>
	<g>
		<rect x="616" y="852" class="st0" width="98" height="7"/>
	</g>
	<g>
		<rect x="611" y="841" class="st0" width="5" height="29"/>
	</g>
</g>
<g>
	<g>
		<rect x="616" y="771" class="st0" width="98" height="7"/>
	</g>
	<g>
		<rect x="611" y="760" class="st0" width="5" height="29"/>
	</g>
</g>
<g>
	<g>
		<rect x="616" y="690" class="st0" width="98" height="7"/>
	</g>
	<g>
		<rect x="611" y="679" class="st0" width="5" height="29"/>
	</g>
</g>
<g>
	<g>
		<rect x="616" y="609" class="st0" width="98" height="7"/>
	</g>
	<g>
		<rect x="611" y="598" class="st0" width="5" height="29"/>
	</g>
</g>
<g>
	<g>
		<rect x="616" y="528" class="st0" width="98" height="7"/>
	</g>
	<g>
		<rect x="611" y="517" class="st0" width="5" height="29"/>
	</g>
</g>
<g>
	<g>
		<rect x="616" y="447" class="st0" width="98" height="7"/>
	</g>
	<g>
		<rect x="611" y="436" class="st0" width="5" height="29"/>
	</g>
</g>
<g>
	<g>
		<rect x="616" y="366" class="st0" width="98" height="7"/>
	</g>
	<g>
		<rect x="611" y="355" class="st0" width="5" height="29"/>
	</g>
</g>
<g>
	<g>
		<rect x="616" y="285" class="st0" width="98" height="7"/>
	</g>
	<g>
		<rect x="611" y="274" class="st0" width="5" height="29"/>
	</g>
</g>
<g>
	<g>
		<rect x="616" y="204" class="st0" width="98" height="7"/>
	</g>
	<g>
		<rect x="611" y="193" class="st0" width="5" height="29"/>
	</g>
</g>
<g>
	<g>
		<rect x="616" y="123" class="st0" width="98" height="7"/>
	</g>
	<g>
		<rect x="611" y="112" class="st0" width="5" height="29"/>
	</g>
</g>
<g>
	<g>
		<rect x="616" y="42" class="st0" width="98" height="7"/>
	</g>
	<g>
		<rect x="611" y="31" class="st0" width="5" height="29"/>
	</g>
</g>
<g>
	<rect x="535" y="2" class="st0" width="5" height="29"/>
</g>
<g>
	<rect x="535" y="49" class="st0" width="5" height="29"/>
</g>
<g>
	<rect x="535" y="96" class="st0" width="5" height="29"/>
</g>
<g>
	<rect x="535" y="143" class="st0" width="5" height="29"/>
</g>
<g>
	<rect x="535" y="190" class="st0" width="5" height="29"/>
</g>
<g>
	<rect x="535" y="237" class="st0" width="5" height="29"/>
</g>
<g>
	<rect x="535" y="284" class="st0" width="5" height="29"/>
</g>
<g>
	<rect x="535" y="331" class="st0" width="5" height="29"/>
</g>
<g>
	<rect x="535" y="378" class="st0" width="5" height="29"/>
</g>
<g>
	<rect x="535" y="425" class="st0" width="5" height="29"/>
</g>
<g>
	<rect x="535" y="472" class="st0" width="5" height="29"/>
</g>
<g>
	<rect x="535" y="519" class="st0" width="5" height="29"/>
</g>
<g>
	<rect x="535" y="566" class="st0" width="5" height="29"/>
</g>
<g>
	<rect x="535" y="613" class="st0" width="5" height="29"/>
</g>
<g>
	<rect x="535" y="660" class="st0" width="5" height="29"/>
</g>
<g>
	<rect x="535" y="707" class="st0" width="5" height="29"/>
</g>
<g>
	<rect x="535" y="754" class="st0" width="5" height="29"/>
</g>
<g>
	<rect x="535" y="801" class="st0" width="5" height="29"/>
</g>
<g>
	<rect x="535" y="848" class="st0" width="5" height="29"/>
</g>
<g>
	<rect x="535" y="895" class="st0" width="5" height="29"/>
</g>
<g>
	<rect x="714" y="2" class="st0" width="8" height="900"/>
</g>
<g>
	<g>
		<rect x="722" y="852" class="st0" width="98" height="7"/>
	</g>
	<g>
		<rect x="820" y="841" class="st0" width="5" height="29"/>
	</g>
</g>
<g>
	<g>
		<rect x="722" y="771" class="st0" width="98" height="7"/>
	</g>
	<g>
		<rect x="820" y="760" class="st0" width="5" height="29"/>
	</g>
</g>
<g>
	<g>
		<rect x="722" y="690" class="st0" width="98" height="7"/>
	</g>
	<g>
		<rect x="820" y="679" class="st0" width="5" height="29"/>
	</g>
</g>
<g>
	<g>
		<rect x="722" y="609" class="st0" width="98" height="7"/>
	</g>
	<g>
		<rect x="820" y="598" class="st0" width="5" height="29"/>
	</g>
</g>
<g>
	<g>
		<rect x="722" y="528" class="st0" width="98" height="7"/>
	</g>
	<g>
		<rect x="820" y="517" class="st0" width="5" height="29"/>
	</g>
</g>
<g>
	<g>
		<rect x="722" y="447" class="st0" width="98" height="7"/>
	</g>
	<g>
		<rect x="820" y="436" class="st0" width="5" height="29"/>
	</g>
</g>
<g>
	<g>
		<rect x="722" y="366" class="st0" width="98" height="7"/>
	</g>
	<g>
		<rect x="820" y="355" class="st0" width="5" height="29"/>
	</g>
</g>
<g>
	<g>
		<rect x="722" y="285" class="st0" width="98" height="7"/>
	</g>
	<g>
		<rect x="820" y="274" class="st0" width="5" height="29"/>
	</g>
</g>
<g>
	<g>
		<rect x="722" y="204" class="st0" width="98" height="7"/>
	</g>
	<g>
		<rect x="820" y="193" class="st0" width="5" height="29"/>
	</g>
</g>
<g>
	<g>
		<rect x="722" y="123" class="st0" width="98" height="7"/>
	</g>
	<g>
		<rect x="820" y="112" class="st0" width="5" height="29"/>
	</g>
</g>
<g>
	<g>
		<rect x="722" y="42" class="st0" width="98" height="7"/>
	</g>
	<g>
		<rect x="820" y="31" class="st0" width="5" height="29"/>
	</g>
</g>
<g>
	<rect x="1069" y="2" class="st0" width="8" height="900"/>
</g>
<g>
	<g>
		<rect x="971" y="852" class="st0" width="98" height="7"/>
	</g>
	<g>
		<rect x="966" y="841" class="st0" width="5" height="29"/>
	</g>
</g>
<g>
	<g>
		<rect x="971" y="771" class="st0" width="98" height="7"/>
	</g>
	<g>
		<rect x="966" y="760" class="st0" width="5" height="29"/>
	</g>
</g>
<g>
	<g>
		<rect x="971" y="690" class="st0" width="98" height="7"/>
	</g>
	<g>
		<rect x="966" y="679" class="st0" width="5" height="29"/>
	</g>
</g>
<g>
	<g>
		<rect x="971" y="609" class="st0" width="98" height="7"/>
	</g>
	<g>
		<rect x="966" y="598" class="st0" width="5" height="29"/>
	</g>
</g>
<g>
	<g>
		<rect x="971" y="528" class="st0" width="98" height="7"/>
	</g>
	<g>
		<rect x="966" y="517" class="st0" width="5" height="29"/>
	</g>
</g>
<g>
	<g>
		<rect x="971" y="447" class="st0" width="98" height="7"/>
	</g>
	<g>
		<rect x="966" y="436" class="st0" width="5" height="29"/>
	</g>
</g>
<g>
	<g>
		<rect x="971" y="366" class="st0" width="98" height="7"/>
	</g>
	<g>
		<rect x="966" y="355" class="st0" width="5" height="29"/>
	</g>
</g>
<g>
	<g>
		<rect x="971" y="285" class="st0" width="98" height="7"/>
	</g>
	<g>
		<rect x="966" y="274" class="st0" width="5" height="29"/>
	</g>
</g>
<g>
	<g>
		<rect x="971" y="204" class="st0" width="98" height="7"/>
	</g>
	<g>
		<rect x="966" y="193" class="st0" width="5" height="29"/>
	</g>
</g>
<g>
	<g>
		<rect x="971" y="123" class="st0" width="98" height="7"/>
	</g>
	<g>
		<rect x="966" y="112" class="st0" width="5" height="29"/>
	</g>
</g>
<g>
	<g>
		<rect x="971" y="42" class="st0" width="98" height="7"/>
	</g>
	<g>
		<rect x="966" y="31" class="st0" width="5" height="29"/>
	</g>
</g>
<g>
	<rect x="890" y="2" class="st0" width="5" height="29"/>
</g>
<g>
	<rect x="890" y="49" class="st0" width="5" height="29"/>
</g>
<g>
	<rect x="890" y="96" class="st0" width="5" height="29"/>
</g>
<g>
	<rect x="890" y="143" class="st0" width="5" height="29"/>
</g>
<g>
	<rect x="890" y="190" class="st0" width="5" height="29"/>
</g>
<g>
	<rect x="890" y="237" class="st0" width="5" height="29"/>
</g>
<g>
	<rect x="890" y="284" class="st0" width="5" height="29"/>
</g>
<g>
	<rect x="890" y="331" class="st0" width="5" height="29"/>
</g>
<g>
	<rect x="890" y="378" class="st0" width="5" height="29"/>
</g>
<g>
	<rect x="890" y="425" class="st0" width="5" height="29"/>
</g>
<g>
	<rect x="890" y="472" class="st0" width="5" height="29"/>
</g>
<g>
	<rect x="890" y="519" class="st0" width="5" height="29"/>
</g>
<g>
	<rect x="890" y="566" class="st0" width="5" height="29"/>
</g>
<g>
	<rect x="890" y="613" class="st0" width="5" height="29"/>
</g>
<g>
	<rect x="890" y="660" class="st0" width="5" height="29"/>
</g>
<g>
	<rect x="890" y="707" class="st0" width="5" height="29"/>
</g>
<g>
	<rect x="890" y="754" class="st0" width="5" height="29"/>
</g>
<g>
	<rect x="890" y="801" class="st0" width="5" height="29"/>
</g>
<g>
	<rect x="890" y="848" class="st0" width="5" height="29"/>
</g>
<g>
	<rect x="890" y="895" class="st0" width="5" height="29"/>
</g>
<g>
	<rect x="1069" y="2" class="st0" width="8" height="900"/>
</g>
<g>
	<g>
		<rect x="1077" y="852" class="st0" width="98" height="7"/>
	</g>
	<g>
		<rect x="1175" y="841" class="st0" width="5" height="29"/>
	</g>
</g>
<g>
	<g>
		<rect x="1077" y="771" class="st0" width="98" height="7"/>
	</g>
	<g>
		<rect x="1175" y="760" class="st0" width="5" height="29"/>
	</g>
</g>
<g>
	<g>
		<rect x="1077" y="690" class="st0" width="98" height="7"/>
	</g>
	<g>
		<rect x="1175" y="679" class="st0" width="5" height="29"/>
	</g>
</g>
<g>
	<g>
		<rect x="1077" y="609" class="st0" width="98" height="7"/>
	</g>
	<g>
		<rect x="1175" y="598" class="st0" width="5" height="29"/>
	</g>
</g>
<g>
	<g>
		<rect x="1077" y="528" class="st0" width="98" height="7"/>
	</g>
	<g>
		<rect x="1175" y="517" class="st0" width="5" height="29"/>
	</g>
</g>
<g>
	<g>
		<rect x="1077" y="447" class="st0" width="98" height="7"/>
	</g>
	<g>
		<rect x="1175" y="436" class="st0" width="5" height="29"/>
	</g>
</g>
<g>
	<g>
		<rect x="1077" y="366" class="st0" width="98" height="7"/>
	</g>
	<g>
		<rect x="1175" y="355" class="st0" width="5" height="29"/>
	</g>
</g>
<g>
	<g>
		<rect x="1077" y="285" class="st0" width="98" height="7"/>
	</g>
	<g>
		<rect x="1175" y="274" class="st0" width="5" height="29"/>
	</g>
</g>
<g>
	<g>
		<rect x="1077" y="204" class="st0" width="98" height="7"/>
	</g>
	<g>
		<rect x="1175" y="193" class="st0" width="5" height="29"/>
	</g>
</g>
<g>
	<g>
		<rect x="1077" y="123" class="st0" width="98" height="7"/>
	</g>
	<g>
		<rect x="1175" y="112" class="st0" width="5" height="29"/>
	</g>
</g>
<g>
	<g>
		<rect x="1077" y="42" class="st0" width="98" height="7"/>
	</g>
	<g>
		<rect x="1175" y="31" class="st0" width="5" height="29"/>
	</g>
</g>
<g>
	<rect x="1424" y="2" class="st0" width="16" height="900"/>
</g>
<g>
	<g>
		<rect x="1326" y="852" class="st0" width="98" height="7"/>
	</g>
	<g>
		<rect x="1321" y="841" class="st0" width="5" height="29"/>
	</g>
</g>
<g>
	<g>
		<rect x="1326" y="771" class="st0" width="98" height="7"/>
	</g>
	<g>
		<rect x="1321" y="760" class="st0" width="5" height="29"/>
	</g>
</g>
<g>
	<g>
		<rect x="1326" y="690" class="st0" width="98" height="7"/>
	</g>
	<g>
		<rect x="1321" y="679" class="st0" width="5" height="29"/>
	</g>
</g>
<g>
	<g>
		<rect x="1326" y="609" class="st0" width="98" height="7"/>
	</g>
	<g>
		<rect x="1321" y="598" class="st0" width="5" height="29"/>
	</g>
</g>
<g>
	<g>
		<rect x="1326" y="528" class="st0" width="98" height="7"/>
	</g>
	<g>
		<rect x="1321" y="517" class="st0" width="5" height="29"/>
	</g>
</g>
<g>
	<g>
		<rect x="1326" y="447" class="st0" width="98" height="7"/>
	</g>
	<g>
		<rect x="1321" y="436" class="st0" width="5" height="29"/>
	</g>
</g>
<g>
	<g>
		<rect x="1326" y="366" class="st0" width="98" height="7"/>
	</g>
	<g>
		<rect x="1321" y="355" class="st0" width="5" height="29"/>
	</g>
</g>
<g>
	<g>
		<rect x="1326" y="285" class="st0" width="98" height="7"/>
	</g>
	<g>
		<rect x="1321" y="274" class="st0" width="5" height="29"/>
	</g>
</g>
<g>
	<g>
		<rect x="1326" y="204" class="st0" width="98" height="7"/>
	</g>
	<g>
		<rect x="1321" y="193" class="st0" width="5" height="29"/>
	</g>
</g>
<g>
	<g>
		<rect x="1326" y="123" class="st0" width="98" height="7"/>
	</g>
	<g>
		<rect x="1321" y="112" class="st0" width="5" height="29"/>
	</g>
</g>
<g>
	<g>
		<rect x="1326" y="42" class="st0" width="98" height="7"/>
	</g>
	<g>
		<rect x="1321" y="31" class="st0" width="5" height="29"/>
	</g>
</g>
<g>
	<rect x="1245" y="2" class="st0" width="5" height="29"/>
</g>
<g>
	<rect x="1245" y="49" class="st0" width="5" height="29"/>
</g>
<g>
	<rect x="1245" y="96" class="st0" width="5" height="29"/>
</g>
<g>
	<rect x="1245" y="143" class="st0" width="5" height="29"/>
</g>
<g>
	<rect x="1245" y="190" class="st0" width="5" height="29"/>
</g>
<g>
	<rect x="1245" y="237" class="st0" width="5" height="29"/>
</g>
<g>
	<rect x="1245" y="284" class="st0" width="5" height="29"/>
</g>
<g>
	<rect x="1245" y="331" class="st0" width="5" height="29"/>
</g>
<g>
	<rect x="1245" y="378" class="st0" width="5" height="29"/>
</g>
<g>
	<rect x="1245" y="425" class="st0" width="5" height="29"/>
</g>
<g>
	<rect x="1245" y="472" class="st0" width="5" height="29"/>
</g>
<g>
	<rect x="1245" y="519" class="st0" width="5" height="29"/>
</g>
<g>
	<rect x="1245" y="566" class="st0" width="5" height="29"/>
</g>
<g>
	<rect x="1245" y="613" class="st0" width="5" height="29"/>
</g>
<g>
	<rect x="1245" y="660" class="st0" width="5" height="29"/>
</g>
<g>
	<rect x="1245" y="707" class="st0" width="5" height="29"/>
</g>
<g>
	<rect x="1245" y="754" class="st0" width="5" height="29"/>
</g>
<g>
	<rect x="1245" y="801" class="st0" width="5" height="29"/>
</g>
<g>
	<rect x="1245" y="848" class="st0" width="5" height="29"/>
</g>
<g>
	<rect x="1245" y="895" class="st0" width="5" height="29"/>
</g>
</svg>
