<svg xmlns="http://www.w3.org/2000/svg" viewBox="0 0 164.52 53.5"><defs><style>.cls-1{fill:#a8a8a8;}</style></defs><g id="Laag_2" data-name="Laag 2"><g id="Laag_2-2" data-name="Laag 2"><path class="cls-1" d="M163.19,33c-3-4-2-9-10-11s-34-5-35-6-28-16-31-16h-37s-23,8-28,12-19,5-19,6V33s-3,0-3,1-3,14,15,12c0,0-2-21,17-22s16,23,16,23l74,1s-4-24,16-24,17,22,17,22h8S166.19,37,163.19,33Zm-128-15s-3-4-1-6,9-5,9-5l1,11Zm11,0-1-13s4-3,22-3l2,16Zm56-3v5l-29-1-2-17h14s21,10,22,13Z"/><circle class="cls-1" cx="31.69" cy="41.5" r="12"/><circle class="cls-1" cx="138.69" cy="41.5" r="12"/></g></g></svg>