<svg xmlns="http://www.w3.org/2000/svg" viewBox="0 0 166.5 42.22"><defs><style>.cls-1{fill:#a8a8a8;}</style></defs><g id="Laag_2" data-name="Laag 2"><g id="Laag_2-2" data-name="Laag 2"><path class="cls-1" d="M111.5,14.22s-38-32-109,0c0,0-3.5.5.5,4.5s-3,11-3,12,4,10,14,6c0,0-3-22,16-22s16,24,16,24h72s0-24,17-24,16.5,22.5,16.5,22.5,15-1,15-11S132.5,8.22,111.5,14.22ZM61,15.72c-1,1-18-5-16-8s5-5,12-5C57,2.72,62,14.72,61,15.72Zm33-3v4H66s-8-14-6-14,35,1,38,10Z"/><circle class="cls-1" cx="135.5" cy="30.22" r="12"/><circle class="cls-1" cx="29.5" cy="30.22" r="12"/></g></g></svg>