<svg xmlns="http://www.w3.org/2000/svg" viewBox="0 0 153 59.5"><defs><style>.cls-1{fill:#a8a8a8;}</style></defs><g id="Laag_2" data-name="Laag 2"><g id="Laag_2-2" data-name="Laag 2"><path class="cls-1" d="M151,34s0-7-1-11-38-4-40-6S92,0,92,0H13C9,0,3,29,3,32a2.94,2.94,0,0,1-3,3V48H6S5,30,22,30,40,48,40,48h69s1-18,17-18,16,17,17,18,10,0,10,0V34C153,33,151,34,151,34ZM31,20H9L15,4H37Zm10,0L43,4H65l3,16Zm57-5v5H73L69,4H93l1,1,10,10Z"/><circle class="cls-1" cx="22.5" cy="47.5" r="12"/><circle class="cls-1" cx="125.5" cy="47.5" r="12"/></g></g></svg>