<svg xmlns="http://www.w3.org/2000/svg" viewBox="0 0 165.41 68.5"><defs><style>.cls-1{fill:#a8a8a8;}</style></defs><g id="Laag_2" data-name="Laag 2"><g id="Laag_2-2" data-name="Laag 2"><path class="cls-1" d="M.41,49c1-2,1-1,1-2V1s0-1,5-1h111s13,4,19,22c0,0,26,6,26,9V47h3s-1,12-2,13-8,2-8,1,2-20-15-20-16,19-16,22h-78s3-23-15-23-17,13-17,20c0,0-12,0-13-1S-.59,51,.41,49Zm104-25c1,2,23,1,23,1V21c0-1,4,1,5,0s-12-16-13-17-16,0-17,0S103.41,22,104.41,24Z"/><circle class="cls-1" cx="139.91" cy="56.5" r="12"/><circle class="cls-1" cx="30.91" cy="56.5" r="12"/></g></g></svg>